[img]http://img706.imageshack.us/img706/4351/xmeno.jpg[/img]
[code]
::File:: X-Men.First.Class.2011.TS.XViD-EP1C

::Video Source:: Russian	
::Audio Source:: Own
::Subtitles::::: Hardcoded (Thx IMAGiNE!)

::Language:::::: English
::IMDB:::::::::: http://www.imdb.com/title/tt1270798/

In 1963, Charles Xavier starts up a school and later a team, for humans with suerhuman abilities. Among them is Erik Lensherr, his best friend... and future archenemy.

::Specs:::::::::

Format                           : AVI
Format/Info                      : Audio Video Interleave
File size                        : 1.56 GiB
Duration                         : 1h 59mn
Overall bit rate                 : 1 876 Kbps
Writing application              : VirtualDubMod 1.5.10.2 (build 2540/release)
Writing library                  : VirtualDubMod build 2540/release

Video
ID                               : 0
Format                           : MPEG-4 Visual
Format profile                   : Advanced Simple@L5
Format settings, BVOP            : Yes
Format settings, QPel            : No
Format settings, GMC             : No warppoints
Format settings, Matrix          : Default (H.263)
Muxing mode                      : Packed bitstream
Codec ID                         : XVID
Codec ID/Hint                    : XviD
Duration                         : 1h 59mn
Bit rate                         : 1 738 Kbps
Width                            : 720 pixels
Height                           : 288 pixels
Display aspect ratio             : 2.500
Frame rate                       : 25.000 fps
Color space                      : YUV
Chroma subsampling               : 4:2:0
Bit depth                        : 8 bits
Scan type                        : Progressive
Bits/(Pixel*Frame)               : 0.335
Stream size                      : 1.45 GiB (93%)
Writing library                  : XviD 58

Audio
ID                               : 1
Format                           : MPEG Audio
Format version                   : Version 1
Format profile                   : Layer 3
Codec ID                         : 55
Codec ID/Hint                    : MP3
Duration                         : 1h 59mn
Bit rate mode                    : Constant
Bit rate                         : 128 Kbps
Channel(s)                       : 2 channels
Sampling rate                    : 44.1 KHz
Video delay                      : 11ms
Stream size                      : 109 MiB (7%)
Alignment                        : Split accross interleaves
Interleave, duration             : 40 ms (1.00 video frame)
Interleave, preload duration     : 500 ms

::NOTES::::::::: 
Presenting the first TS of X-Men, First Class. Subs hardcoded for all the foreign parts when needed. Thanks IMAGiNE for the subpack.

Enjoy //EP1C
[/code]
Screens:
[img]http://img818.imageshack.us/img818/7929/50381553.png[/img]
[img]http://img31.imageshack.us/img31/1797/90871578.png[/img]
[img]http://img685.imageshack.us/img685/5962/36941623.png[/img]
[img]http://img89.imageshack.us/img89/4318/82127135.png[/img]
[img]http://img819.imageshack.us/img819/4602/86338810.png[/img]